<svg width="96" height="96" viewBox="0 0 96 96" fill="none" xmlns="http://www.w3.org/2000/svg">
<rect width="96" height="96" rx="20" fill="#F3F6F8"/>
<path d="M12.4946 78.6632L16.1066 68.8632H17.3526L20.9506 78.6632H19.7046L18.8086 76.1432H14.6366L13.7266 78.6632H12.4946ZM14.9866 75.1912H18.4586L16.7226 70.3472L14.9866 75.1912ZM21.5375 81.7432V71.7192H22.6015L22.7135 72.8672C22.9375 72.5312 23.2548 72.2278 23.6655 71.9572C24.0855 71.6865 24.6175 71.5512 25.2615 71.5512C25.9522 71.5512 26.5542 71.7098 27.0675 72.0272C27.5808 72.3445 27.9775 72.7785 28.2575 73.3292C28.5468 73.8798 28.6915 74.5052 28.6915 75.2052C28.6915 75.9052 28.5468 76.5305 28.2575 77.0812C27.9775 77.6225 27.5762 78.0518 27.0535 78.3692C26.5402 78.6772 25.9382 78.8312 25.2475 78.8312C24.6782 78.8312 24.1695 78.7145 23.7215 78.4812C23.2828 78.2478 22.9468 77.9212 22.7135 77.5012V81.7432H21.5375ZM25.1215 77.8092C25.5882 77.8092 25.9988 77.7018 26.3535 77.4872C26.7082 77.2632 26.9882 76.9552 27.1935 76.5632C27.3988 76.1712 27.5015 75.7138 27.5015 75.1912C27.5015 74.6685 27.3988 74.2112 27.1935 73.8192C26.9882 73.4272 26.7082 73.1238 26.3535 72.9092C25.9988 72.6852 25.5882 72.5732 25.1215 72.5732C24.6548 72.5732 24.2442 72.6852 23.8895 72.9092C23.5348 73.1238 23.2548 73.4272 23.0495 73.8192C22.8442 74.2112 22.7415 74.6685 22.7415 75.1912C22.7415 75.7138 22.8442 76.1712 23.0495 76.5632C23.2548 76.9552 23.5348 77.2632 23.8895 77.4872C24.2442 77.7018 24.6548 77.8092 25.1215 77.8092ZM29.5285 81.7432V71.7192H30.5925L30.7045 72.8672C30.9285 72.5312 31.2458 72.2278 31.6565 71.9572C32.0765 71.6865 32.6085 71.5512 33.2525 71.5512C33.9432 71.5512 34.5452 71.7098 35.0585 72.0272C35.5718 72.3445 35.9685 72.7785 36.2485 73.3292C36.5378 73.8798 36.6825 74.5052 36.6825 75.2052C36.6825 75.9052 36.5378 76.5305 36.2485 77.0812C35.9685 77.6225 35.5672 78.0518 35.0445 78.3692C34.5312 78.6772 33.9292 78.8312 33.2385 78.8312C32.6692 78.8312 32.1605 78.7145 31.7125 78.4812C31.2738 78.2478 30.9378 77.9212 30.7045 77.5012V81.7432H29.5285ZM33.1125 77.8092C33.5792 77.8092 33.9898 77.7018 34.3445 77.4872C34.6992 77.2632 34.9792 76.9552 35.1845 76.5632C35.3898 76.1712 35.4925 75.7138 35.4925 75.1912C35.4925 74.6685 35.3898 74.2112 35.1845 73.8192C34.9792 73.4272 34.6992 73.1238 34.3445 72.9092C33.9898 72.6852 33.5792 72.5732 33.1125 72.5732C32.6458 72.5732 32.2352 72.6852 31.8805 72.9092C31.5258 73.1238 31.2458 73.4272 31.0405 73.8192C30.8352 74.2112 30.7325 74.6685 30.7325 75.1912C30.7325 75.7138 30.8352 76.1712 31.0405 76.5632C31.2458 76.9552 31.5258 77.2632 31.8805 77.4872C32.2352 77.7018 32.6458 77.8092 33.1125 77.8092ZM40.6415 78.8312C39.9788 78.8312 39.3908 78.6818 38.8775 78.3832C38.3642 78.0752 37.9582 77.6505 37.6595 77.1092C37.3702 76.5678 37.2255 75.9285 37.2255 75.1912C37.2255 74.4632 37.3702 73.8285 37.6595 73.2872C37.9488 72.7365 38.3502 72.3118 38.8635 72.0132C39.3862 71.7052 39.9882 71.5512 40.6695 71.5512C41.3415 71.5512 41.9202 71.7052 42.4055 72.0132C42.9002 72.3118 43.2782 72.7085 43.5395 73.2032C43.8008 73.6978 43.9315 74.2298 43.9315 74.7992C43.9315 74.9018 43.9268 75.0045 43.9175 75.1072C43.9175 75.2098 43.9175 75.3265 43.9175 75.4572H38.3875C38.4155 75.9892 38.5368 76.4325 38.7515 76.7872C38.9755 77.1325 39.2508 77.3938 39.5775 77.5712C39.9135 77.7485 40.2682 77.8372 40.6415 77.8372C41.1268 77.8372 41.5328 77.7252 41.8595 77.5012C42.1862 77.2772 42.4242 76.9738 42.5735 76.5912H43.7355C43.5488 77.2352 43.1895 77.7718 42.6575 78.2012C42.1348 78.6212 41.4628 78.8312 40.6415 78.8312ZM40.6415 72.5452C40.0815 72.5452 39.5822 72.7178 39.1435 73.0632C38.7142 73.3992 38.4668 73.8938 38.4015 74.5472H42.7695C42.7415 73.9218 42.5268 73.4318 42.1255 73.0772C41.7242 72.7225 41.2295 72.5452 40.6415 72.5452ZM47.0002 78.8312C46.4215 78.8312 45.9409 78.7332 45.5582 78.5372C45.1755 78.3412 44.8909 78.0798 44.7042 77.7532C44.5175 77.4265 44.4242 77.0718 44.4242 76.6892C44.4242 75.9798 44.6949 75.4338 45.2362 75.0512C45.7775 74.6685 46.5149 74.4772 47.4482 74.4772H49.3242V74.3932C49.3242 73.7865 49.1655 73.3292 48.8482 73.0212C48.5309 72.7038 48.1062 72.5452 47.5742 72.5452C47.1169 72.5452 46.7202 72.6618 46.3842 72.8952C46.0575 73.1192 45.8522 73.4505 45.7682 73.8892H44.5642C44.6109 73.3852 44.7789 72.9605 45.0682 72.6152C45.3669 72.2698 45.7355 72.0085 46.1742 71.8312C46.6129 71.6445 47.0795 71.5512 47.5742 71.5512C48.5449 71.5512 49.2729 71.8125 49.7582 72.3352C50.2529 72.8485 50.5002 73.5345 50.5002 74.3932V78.6632H49.4502L49.3802 77.4172C49.1842 77.8092 48.8949 78.1452 48.5122 78.4252C48.1389 78.6958 47.6349 78.8312 47.0002 78.8312ZM47.1822 77.8372C47.6302 77.8372 48.0129 77.7205 48.3302 77.4872C48.6569 77.2538 48.9042 76.9505 49.0722 76.5772C49.2402 76.2038 49.3242 75.8118 49.3242 75.4012V75.3872H47.5462C46.8555 75.3872 46.3656 75.5085 46.0762 75.7512C45.7962 75.9845 45.6562 76.2785 45.6562 76.6332C45.6562 76.9972 45.7869 77.2912 46.0482 77.5152C46.3189 77.7298 46.6969 77.8372 47.1822 77.8372ZM51.4644 78.6632V71.7192H52.5284L52.6264 73.0492C52.8411 72.5918 53.1678 72.2278 53.6064 71.9572C54.0451 71.6865 54.5864 71.5512 55.2304 71.5512V72.7832H54.9084C54.4978 72.7832 54.1198 72.8578 53.7744 73.0072C53.4291 73.1472 53.1538 73.3898 52.9484 73.7352C52.7431 74.0805 52.6404 74.5565 52.6404 75.1632V78.6632H51.4644ZM58.0604 78.8312C57.4817 78.8312 57.001 78.7332 56.6184 78.5372C56.2357 78.3412 55.951 78.0798 55.7644 77.7532C55.5777 77.4265 55.4844 77.0718 55.4844 76.6892C55.4844 75.9798 55.755 75.4338 56.2964 75.0512C56.8377 74.6685 57.575 74.4772 58.5084 74.4772H60.3844V74.3932C60.3844 73.7865 60.2257 73.3292 59.9084 73.0212C59.591 72.7038 59.1664 72.5452 58.6344 72.5452C58.177 72.5452 57.7804 72.6618 57.4444 72.8952C57.1177 73.1192 56.9124 73.4505 56.8284 73.8892H55.6244C55.671 73.3852 55.839 72.9605 56.1284 72.6152C56.427 72.2698 56.7957 72.0085 57.2344 71.8312C57.673 71.6445 58.1397 71.5512 58.6344 71.5512C59.605 71.5512 60.333 71.8125 60.8184 72.3352C61.313 72.8485 61.5604 73.5345 61.5604 74.3932V78.6632H60.5104L60.4404 77.4172C60.2444 77.8092 59.955 78.1452 59.5724 78.4252C59.199 78.6958 58.695 78.8312 58.0604 78.8312ZM58.2424 77.8372C58.6904 77.8372 59.073 77.7205 59.3904 77.4872C59.717 77.2538 59.9644 76.9505 60.1324 76.5772C60.3004 76.2038 60.3844 75.8118 60.3844 75.4012V75.3872H58.6064C57.9157 75.3872 57.4257 75.5085 57.1364 75.7512C56.8564 75.9845 56.7164 76.2785 56.7164 76.6332C56.7164 76.9972 56.847 77.2912 57.1084 77.5152C57.379 77.7298 57.757 77.8372 58.2424 77.8372ZM62.5246 78.6632V71.7192H63.5886L63.6586 72.9652C63.8826 72.5265 64.2046 72.1812 64.6246 71.9292C65.0446 71.6772 65.5206 71.5512 66.0526 71.5512C66.8739 71.5512 67.5273 71.8032 68.0126 72.3072C68.5073 72.8018 68.7546 73.5672 68.7546 74.6032V78.6632H67.5786V74.7292C67.5786 73.2825 66.9813 72.5592 65.7866 72.5592C65.1893 72.5592 64.6899 72.7785 64.2886 73.2172C63.8966 73.6465 63.7006 74.2625 63.7006 75.0652V78.6632H62.5246ZM72.9283 78.8312C72.2656 78.8312 71.6683 78.6818 71.1363 78.3832C70.6136 78.0752 70.1983 77.6505 69.8903 77.1092C69.5916 76.5585 69.4423 75.9192 69.4423 75.1912C69.4423 74.4632 69.5916 73.8285 69.8903 73.2872C70.1983 72.7365 70.6136 72.3118 71.1363 72.0132C71.6683 71.7052 72.2656 71.5512 72.9283 71.5512C73.7496 71.5512 74.4403 71.7658 75.0003 72.1952C75.5696 72.6245 75.929 73.1985 76.0783 73.9172H74.8743C74.781 73.4878 74.5523 73.1565 74.1883 72.9232C73.8243 72.6805 73.3996 72.5592 72.9143 72.5592C72.5223 72.5592 72.1536 72.6572 71.8083 72.8532C71.463 73.0492 71.183 73.3432 70.9683 73.7352C70.7536 74.1272 70.6463 74.6125 70.6463 75.1912C70.6463 75.7698 70.7536 76.2552 70.9683 76.6472C71.183 77.0392 71.463 77.3378 71.8083 77.5432C72.1536 77.7392 72.5223 77.8372 72.9143 77.8372C73.3996 77.8372 73.8243 77.7205 74.1883 77.4872C74.5523 77.2445 74.781 76.9038 74.8743 76.4652H76.0783C75.9383 77.1652 75.5836 77.7345 75.0143 78.1732C74.445 78.6118 73.7496 78.8312 72.9283 78.8312ZM80.0427 78.8312C79.38 78.8312 78.792 78.6818 78.2787 78.3832C77.7653 78.0752 77.3593 77.6505 77.0607 77.1092C76.7713 76.5678 76.6267 75.9285 76.6267 75.1912C76.6267 74.4632 76.7713 73.8285 77.0607 73.2872C77.35 72.7365 77.7513 72.3118 78.2647 72.0132C78.7873 71.7052 79.3893 71.5512 80.0707 71.5512C80.7427 71.5512 81.3213 71.7052 81.8067 72.0132C82.3013 72.3118 82.6793 72.7085 82.9407 73.2032C83.202 73.6978 83.3327 74.2298 83.3327 74.7992C83.3327 74.9018 83.328 75.0045 83.3187 75.1072C83.3187 75.2098 83.3187 75.3265 83.3187 75.4572H77.7887C77.8167 75.9892 77.938 76.4325 78.1527 76.7872C78.3767 77.1325 78.652 77.3938 78.9787 77.5712C79.3147 77.7485 79.6693 77.8372 80.0427 77.8372C80.528 77.8372 80.934 77.7252 81.2607 77.5012C81.5873 77.2772 81.8253 76.9738 81.9747 76.5912H83.1367C82.95 77.2352 82.5907 77.7718 82.0587 78.2012C81.536 78.6212 80.864 78.8312 80.0427 78.8312ZM80.0427 72.5452C79.4827 72.5452 78.9833 72.7178 78.5447 73.0632C78.1153 73.3992 77.868 73.8938 77.8027 74.5472H82.1707C82.1427 73.9218 81.928 73.4318 81.5267 73.0772C81.1253 72.7225 80.6307 72.5452 80.0427 72.5452Z" fill="#BDBDBD"/>
<path d="M50.7999 16.192C47.5022 15.7406 44.144 16.1128 41.0251 17.2752C37.9063 18.4377 35.1237 20.3543 32.9259 22.854C31.0449 25.0204 29.6493 27.5642 28.8328 30.3145C28.0162 33.0649 27.7977 35.9582 28.1919 38.8C29.2519 46.588 35.1079 53.214 42.7619 55.292C44.4682 55.7589 46.2289 55.997 47.9979 56L48.2819 55.998C49.293 55.985 50.2844 55.7167 51.1641 55.2181C52.0438 54.7195 52.7833 54.0068 53.3139 53.146C53.8463 52.2899 54.1535 51.3131 54.207 50.3063C54.2605 49.2996 54.0586 48.2957 53.6199 47.388L53.2219 46.556C52.9158 45.9579 52.7721 45.2899 52.805 44.6189C52.838 43.9478 53.0466 43.2972 53.4099 42.732C53.9298 41.8876 54.7442 41.2658 55.6957 40.9869C56.6473 40.708 57.6685 40.7918 58.5619 41.222L59.3859 41.616C60.2099 42.012 61.0859 42.214 61.9879 42.214C63.5665 42.2059 65.0792 41.5805 66.2027 40.4716C67.3262 39.3627 67.9712 37.8583 67.9999 36.28C68.0247 34.416 67.787 32.5578 67.2939 30.76C65.2139 23.108 58.5879 17.252 50.7999 16.192ZM61.1159 38.01L60.2919 37.616C56.6359 35.86 52.1519 37.22 50.0219 40.604C48.5459 42.956 48.3959 45.756 49.6139 48.288L50.0119 49.12C50.1611 49.4222 50.2301 49.7578 50.2122 50.0943C50.1943 50.4309 50.0902 50.7572 49.9099 51.042C49.7342 51.3329 49.4866 51.5738 49.1911 51.7415C48.8955 51.9093 48.5618 51.9983 48.2219 52H47.9979C46.5825 51.9961 45.1737 51.8058 43.8079 51.434C37.6819 49.772 33.0019 44.476 32.1559 38.262C31.5139 33.552 32.8599 29.016 35.9419 25.484C37.6954 23.4725 39.924 21.9313 42.425 21.0008C44.926 20.0702 47.62 19.7798 50.2619 20.156C56.4759 21.002 61.7719 25.684 63.4339 31.808C63.8299 33.268 64.0199 34.756 63.9979 36.222C63.9739 37.836 62.3079 38.588 61.1159 38.01Z" fill="#BDBDBD"/>
<path d="M39 44C40.6569 44 42 42.6569 42 41C42 39.3431 40.6569 38 39 38C37.3431 38 36 39.3431 36 41C36 42.6569 37.3431 44 39 44Z" fill="#BDBDBD"/>
<path d="M39 36C40.6569 36 42 34.6569 42 33C42 31.3431 40.6569 30 39 30C37.3431 30 36 31.3431 36 33C36 34.6569 37.3431 36 39 36Z" fill="#BDBDBD"/>
<path d="M45 30C46.6569 30 48 28.6569 48 27C48 25.3431 46.6569 24 45 24C43.3431 24 42 25.3431 42 27C42 28.6569 43.3431 30 45 30Z" fill="#BDBDBD"/>
<path d="M53 30C54.6569 30 56 28.6569 56 27C56 25.3431 54.6569 24 53 24C51.3431 24 50 25.3431 50 27C50 28.6569 51.3431 30 53 30Z" fill="#BDBDBD"/>
<rect width="96" height="96" rx="20" fill="black" fill-opacity="0.2"/>
<rect x="18" y="33" width="60" height="30" fill="#FFDB47"/>
<path d="M22.7255 53L26.3095 43.2H28.3255L31.9095 53H30.0055L29.2215 50.732H25.3995L24.6015 53H22.7255ZM25.8895 49.332H28.7315L27.3035 45.258L25.8895 49.332ZM35.4038 53.168C34.6945 53.168 34.0691 53.014 33.5278 52.706C32.9865 52.398 32.5571 51.9687 32.2398 51.418C31.9318 50.8673 31.7778 50.2373 31.7778 49.528C31.7778 48.8187 31.9318 48.1887 32.2398 47.638C32.5571 47.0873 32.9865 46.658 33.5278 46.35C34.0691 46.042 34.6945 45.888 35.4038 45.888C36.2905 45.888 37.0371 46.1213 37.6438 46.588C38.2505 47.0453 38.6378 47.68 38.8058 48.492H36.9158C36.8225 48.156 36.6358 47.8947 36.3558 47.708C36.0851 47.512 35.7631 47.414 35.3898 47.414C34.8951 47.414 34.4751 47.6007 34.1298 47.974C33.7845 48.3473 33.6118 48.8653 33.6118 49.528C33.6118 50.1907 33.7845 50.7087 34.1298 51.082C34.4751 51.4553 34.8951 51.642 35.3898 51.642C35.7631 51.642 36.0851 51.5487 36.3558 51.362C36.6358 51.1753 36.8225 50.9093 36.9158 50.564H38.8058C38.6378 51.348 38.2505 51.978 37.6438 52.454C37.0371 52.93 36.2905 53.168 35.4038 53.168ZM42.5946 53C41.8666 53 41.2833 52.8227 40.8446 52.468C40.406 52.1133 40.1866 51.4833 40.1866 50.578V47.554H38.9966V46.056H40.1866L40.3966 44.194H41.9786V46.056H43.8546V47.554H41.9786V50.592C41.9786 50.928 42.0486 51.1613 42.1886 51.292C42.338 51.4133 42.59 51.474 42.9446 51.474H43.8126V53H42.5946ZM45.5592 44.978C45.2325 44.978 44.9619 44.88 44.7472 44.684C44.5419 44.488 44.4392 44.2407 44.4392 43.942C44.4392 43.6433 44.5419 43.4007 44.7472 43.214C44.9619 43.018 45.2325 42.92 45.5592 42.92C45.8859 42.92 46.1519 43.018 46.3572 43.214C46.5719 43.4007 46.6792 43.6433 46.6792 43.942C46.6792 44.2407 46.5719 44.488 46.3572 44.684C46.1519 44.88 45.8859 44.978 45.5592 44.978ZM44.6632 53V46.056H46.4552V53H44.6632ZM49.4016 53L46.8536 46.056H48.7296L50.4936 51.306L52.2576 46.056H54.1336L51.5716 53H49.4016ZM56.4341 53.168C55.8367 53.168 55.3467 53.0747 54.9641 52.888C54.5814 52.692 54.2967 52.4353 54.1101 52.118C53.9234 51.8007 53.8301 51.4507 53.8301 51.068C53.8301 50.424 54.0821 49.9013 54.5861 49.5C55.0901 49.0987 55.8461 48.898 56.8541 48.898H58.6181V48.73C58.6181 48.254 58.4827 47.904 58.2121 47.68C57.9414 47.456 57.6054 47.344 57.2041 47.344C56.8401 47.344 56.5227 47.4327 56.2521 47.61C55.9814 47.778 55.8134 48.03 55.7481 48.366H53.9981C54.0447 47.862 54.2127 47.4233 54.5021 47.05C54.8007 46.6767 55.1834 46.392 55.6501 46.196C56.1167 45.9907 56.6394 45.888 57.2181 45.888C58.2074 45.888 58.9867 46.1353 59.5561 46.63C60.1254 47.1247 60.4101 47.8247 60.4101 48.73V53H58.8841L58.7161 51.88C58.5107 52.2533 58.2214 52.5613 57.8481 52.804C57.4841 53.0467 57.0127 53.168 56.4341 53.168ZM56.8401 51.768C57.3534 51.768 57.7501 51.6 58.0301 51.264C58.3194 50.928 58.5014 50.5127 58.5761 50.018H57.0501C56.5741 50.018 56.2334 50.1067 56.0281 50.284C55.8227 50.452 55.7201 50.662 55.7201 50.914C55.7201 51.1847 55.8227 51.3947 56.0281 51.544C56.2334 51.6933 56.5041 51.768 56.8401 51.768ZM64.3185 53C63.5905 53 63.0071 52.8227 62.5685 52.468C62.1298 52.1133 61.9105 51.4833 61.9105 50.578V47.554H60.7205V46.056H61.9105L62.1205 44.194H63.7025V46.056H65.5785V47.554H63.7025V50.592C63.7025 50.928 63.7725 51.1613 63.9125 51.292C64.0618 51.4133 64.3138 51.474 64.6685 51.474H65.5365V53H64.3185ZM69.5133 53.168C68.8133 53.168 68.1926 53.0187 67.6513 52.72C67.11 52.4213 66.6853 52.0013 66.3773 51.46C66.0693 50.9187 65.9153 50.2933 65.9153 49.584C65.9153 48.8653 66.0646 48.226 66.3633 47.666C66.6713 47.106 67.0913 46.672 67.6233 46.364C68.1646 46.0467 68.7993 45.888 69.5273 45.888C70.2086 45.888 70.8106 46.0373 71.3333 46.336C71.856 46.6347 72.262 47.0453 72.5513 47.568C72.85 48.0813 72.9993 48.6553 72.9993 49.29C72.9993 49.3927 72.9946 49.5 72.9853 49.612C72.9853 49.724 72.9806 49.8407 72.9713 49.962H67.6933C67.7306 50.5033 67.9173 50.928 68.2533 51.236C68.5986 51.544 69.014 51.698 69.4993 51.698C69.8633 51.698 70.1666 51.6187 70.4093 51.46C70.6613 51.292 70.848 51.0773 70.9693 50.816H72.7893C72.6586 51.2547 72.4393 51.656 72.1313 52.02C71.8326 52.3747 71.4593 52.6547 71.0113 52.86C70.5726 53.0653 70.0733 53.168 69.5133 53.168ZM69.5273 47.344C69.0886 47.344 68.7013 47.47 68.3653 47.722C68.0293 47.9647 67.8146 48.338 67.7213 48.842H71.1793C71.1513 48.3847 70.9833 48.0207 70.6753 47.75C70.3673 47.4793 69.9846 47.344 69.5273 47.344Z" fill="black"/>
</svg>
