<svg width="96" height="96" viewBox="0 0 96 96" fill="none" xmlns="http://www.w3.org/2000/svg">
<rect width="96" height="96" rx="20" fill="#F3F6F8"/>
<path d="M29.8271 78.8312C28.8378 78.8312 27.9884 78.6212 27.2791 78.2012C26.5698 77.7718 26.0238 77.1792 25.6411 76.4232C25.2584 75.6578 25.0671 74.7758 25.0671 73.7772C25.0671 72.7785 25.2584 71.8965 25.6411 71.1312C26.0238 70.3658 26.5698 69.7685 27.2791 69.3392C27.9884 68.9098 28.8378 68.6952 29.8271 68.6952C31.0031 68.6952 31.9644 68.9892 32.7111 69.5772C33.4671 70.1558 33.9384 70.9725 34.1251 72.0272H32.1511C32.0298 71.4952 31.7684 71.0798 31.3671 70.7812C30.9751 70.4732 30.4524 70.3192 29.7991 70.3192C28.8938 70.3192 28.1844 70.6272 27.6711 71.2432C27.1578 71.8592 26.9011 72.7038 26.9011 73.7772C26.9011 74.8505 27.1578 75.6952 27.6711 76.3112C28.1844 76.9178 28.8938 77.2212 29.7991 77.2212C30.4524 77.2212 30.9751 77.0812 31.3671 76.8012C31.7684 76.5118 32.0298 76.1152 32.1511 75.6112H34.1251C33.9384 76.6192 33.4671 77.4078 32.7111 77.9772C31.9644 78.5465 31.0031 78.8312 29.8271 78.8312ZM37.2634 78.8312C36.666 78.8312 36.176 78.7378 35.7934 78.5512C35.4107 78.3552 35.126 78.0985 34.9394 77.7812C34.7527 77.4638 34.6594 77.1138 34.6594 76.7312C34.6594 76.0872 34.9114 75.5645 35.4154 75.1632C35.9194 74.7618 36.6754 74.5612 37.6834 74.5612H39.4474V74.3932C39.4474 73.9172 39.312 73.5672 39.0414 73.3432C38.7707 73.1192 38.4347 73.0072 38.0334 73.0072C37.6694 73.0072 37.352 73.0958 37.0814 73.2732C36.8107 73.4412 36.6427 73.6932 36.5774 74.0292H34.8274C34.874 73.5252 35.042 73.0865 35.3314 72.7132C35.63 72.3398 36.0127 72.0552 36.4794 71.8592C36.946 71.6538 37.4687 71.5512 38.0474 71.5512C39.0367 71.5512 39.816 71.7985 40.3854 72.2932C40.9547 72.7878 41.2394 73.4878 41.2394 74.3932V78.6632H39.7134L39.5454 77.5432C39.34 77.9165 39.0507 78.2245 38.6774 78.4672C38.3134 78.7098 37.842 78.8312 37.2634 78.8312ZM37.6694 77.4312C38.1827 77.4312 38.5794 77.2632 38.8594 76.9272C39.1487 76.5912 39.3307 76.1758 39.4054 75.6812H37.8794C37.4034 75.6812 37.0627 75.7698 36.8574 75.9472C36.652 76.1152 36.5494 76.3252 36.5494 76.5772C36.5494 76.8478 36.652 77.0578 36.8574 77.2072C37.0627 77.3565 37.3334 77.4312 37.6694 77.4312ZM45.1477 78.6632C44.4197 78.6632 43.8364 78.4858 43.3977 78.1312C42.9591 77.7765 42.7397 77.1465 42.7397 76.2412V73.2172H41.5497V71.7192H42.7397L42.9497 69.8572H44.5317V71.7192H46.4077V73.2172H44.5317V76.2552C44.5317 76.5912 44.6017 76.8245 44.7417 76.9552C44.8911 77.0765 45.1431 77.1372 45.4977 77.1372H46.3657V78.6632H45.1477ZM49.5403 78.8312C48.943 78.8312 48.453 78.7378 48.0703 78.5512C47.6877 78.3552 47.403 78.0985 47.2163 77.7812C47.0297 77.4638 46.9363 77.1138 46.9363 76.7312C46.9363 76.0872 47.1883 75.5645 47.6923 75.1632C48.1963 74.7618 48.9523 74.5612 49.9603 74.5612H51.7243V74.3932C51.7243 73.9172 51.589 73.5672 51.3183 73.3432C51.0477 73.1192 50.7117 73.0072 50.3103 73.0072C49.9463 73.0072 49.629 73.0958 49.3583 73.2732C49.0877 73.4412 48.9197 73.6932 48.8543 74.0292H47.1043C47.151 73.5252 47.319 73.0865 47.6083 72.7132C47.907 72.3398 48.2897 72.0552 48.7563 71.8592C49.223 71.6538 49.7457 71.5512 50.3243 71.5512C51.3137 71.5512 52.093 71.7985 52.6623 72.2932C53.2317 72.7878 53.5163 73.4878 53.5163 74.3932V78.6632H51.9903L51.8223 77.5432C51.617 77.9165 51.3277 78.2245 50.9543 78.4672C50.5903 78.7098 50.119 78.8312 49.5403 78.8312ZM49.9463 77.4312C50.4597 77.4312 50.8563 77.2632 51.1363 76.9272C51.4257 76.5912 51.6077 76.1758 51.6823 75.6812H50.1563C49.6803 75.6812 49.3397 75.7698 49.1343 75.9472C48.929 76.1152 48.8263 76.3252 48.8263 76.5772C48.8263 76.8478 48.929 77.0578 49.1343 77.2072C49.3397 77.3565 49.6103 77.4312 49.9463 77.4312ZM54.4264 78.6632V68.5832H56.2184V78.6632H54.4264ZM60.5815 78.8312C59.9095 78.8312 59.3028 78.6772 58.7615 78.3692C58.2295 78.0612 57.8048 77.6365 57.4875 77.0952C57.1795 76.5445 57.0255 75.9098 57.0255 75.1912C57.0255 74.4725 57.1841 73.8425 57.5015 73.3012C57.8188 72.7505 58.2435 72.3212 58.7755 72.0132C59.3168 71.7052 59.9235 71.5512 60.5955 71.5512C61.2581 71.5512 61.8555 71.7052 62.3875 72.0132C62.9288 72.3212 63.3535 72.7505 63.6615 73.3012C63.9788 73.8425 64.1375 74.4725 64.1375 75.1912C64.1375 75.9098 63.9788 76.5445 63.6615 77.0952C63.3535 77.6365 62.9288 78.0612 62.3875 78.3692C61.8461 78.6772 61.2441 78.8312 60.5815 78.8312ZM60.5815 77.2772C61.0481 77.2772 61.4541 77.1045 61.7995 76.7592C62.1448 76.4045 62.3175 75.8818 62.3175 75.1912C62.3175 74.5005 62.1448 73.9825 61.7995 73.6372C61.4541 73.2825 61.0528 73.1052 60.5955 73.1052C60.1195 73.1052 59.7088 73.2825 59.3635 73.6372C59.0275 73.9825 58.8595 74.5005 58.8595 75.1912C58.8595 75.8818 59.0275 76.4045 59.3635 76.7592C59.7088 77.1045 60.1148 77.2772 60.5815 77.2772ZM67.4422 76.5912C67.1062 76.5912 66.7935 76.5538 66.5042 76.4792L65.9862 76.9972C66.1449 77.0812 66.3595 77.1512 66.6302 77.2072C66.9009 77.2632 67.3395 77.3192 67.9462 77.3752C68.8702 77.4592 69.5422 77.6785 69.9622 78.0332C70.3822 78.3878 70.5922 78.8778 70.5922 79.5032C70.5922 79.9138 70.4802 80.3012 70.2562 80.6652C70.0322 81.0385 69.6869 81.3372 69.2202 81.5612C68.7535 81.7945 68.1562 81.9112 67.4282 81.9112C66.4389 81.9112 65.6409 81.7245 65.0342 81.3512C64.4275 80.9872 64.1242 80.4365 64.1242 79.6992C64.1242 79.0738 64.4275 78.5325 65.0342 78.0752C64.8475 77.9912 64.6842 77.9025 64.5442 77.8092C64.4135 77.7158 64.2969 77.6178 64.1942 77.5152V77.1932L65.4122 75.9052C64.8709 75.4292 64.6002 74.8178 64.6002 74.0712C64.6002 73.6045 64.7122 73.1798 64.9362 72.7972C65.1695 72.4145 65.4962 72.1112 65.9162 71.8872C66.3362 71.6632 66.8449 71.5512 67.4422 71.5512C67.8342 71.5512 68.1982 71.6072 68.5342 71.7192H71.1662V72.8112L69.9762 72.8952C70.1629 73.2498 70.2562 73.6418 70.2562 74.0712C70.2562 74.5378 70.1442 74.9625 69.9202 75.3452C69.6962 75.7278 69.3695 76.0312 68.9402 76.2552C68.5202 76.4792 68.0209 76.5912 67.4422 76.5912ZM67.4422 75.2192C67.8062 75.2192 68.1049 75.1212 68.3382 74.9252C68.5809 74.7292 68.7022 74.4492 68.7022 74.0852C68.7022 73.7212 68.5809 73.4412 68.3382 73.2452C68.1049 73.0492 67.8062 72.9512 67.4422 72.9512C67.0595 72.9512 66.7515 73.0492 66.5182 73.2452C66.2849 73.4412 66.1682 73.7212 66.1682 74.0852C66.1682 74.4492 66.2849 74.7292 66.5182 74.9252C66.7515 75.1212 67.0595 75.2192 67.4422 75.2192ZM65.7622 79.5172C65.7622 79.8625 65.9209 80.1192 66.2382 80.2872C66.5649 80.4645 66.9615 80.5532 67.4282 80.5532C67.8762 80.5532 68.2402 80.4598 68.5202 80.2732C68.8002 80.0958 68.9402 79.8532 68.9402 79.5452C68.9402 79.2932 68.8469 79.0832 68.6602 78.9152C68.4829 78.7472 68.1235 78.6445 67.5822 78.6072C67.1995 78.5792 66.8449 78.5372 66.5182 78.4812C66.2475 78.6305 66.0515 78.7938 65.9302 78.9712C65.8182 79.1485 65.7622 79.3305 65.7622 79.5172Z" fill="#BDBDBD"/>
<path d="M44 18.1263H32C31.4696 18.1263 30.9609 18.337 30.5858 18.7121C30.2107 19.0872 30 19.5959 30 20.1263V32.1263C30 32.6567 30.2107 33.1655 30.5858 33.5405C30.9609 33.9156 31.4696 34.1263 32 34.1263H44C44.5304 34.1263 45.0391 33.9156 45.4142 33.5405C45.7893 33.1655 46 32.6567 46 32.1263V20.1263C46 19.5959 45.7893 19.0872 45.4142 18.7121C45.0391 18.337 44.5304 18.1263 44 18.1263ZM42 30.1263H34V22.1263H42V30.1263ZM52 34.1263H64C64.5304 34.1263 65.0391 33.9156 65.4142 33.5405C65.7893 33.1655 66 32.6567 66 32.1263V20.1263C66 19.5959 65.7893 19.0872 65.4142 18.7121C65.0391 18.337 64.5304 18.1263 64 18.1263H52C51.4696 18.1263 50.9609 18.337 50.5858 18.7121C50.2107 19.0872 50 19.5959 50 20.1263V32.1263C50 32.6567 50.2107 33.1655 50.5858 33.5405C50.9609 33.9156 51.4696 34.1263 52 34.1263ZM54 22.1263H62V30.1263H54V22.1263ZM30 52.1263C30 52.6567 30.2107 53.1655 30.5858 53.5405C30.9609 53.9156 31.4696 54.1263 32 54.1263H44C44.5304 54.1263 45.0391 53.9156 45.4142 53.5405C45.7893 53.1655 46 52.6567 46 52.1263V40.1263C46 39.5959 45.7893 39.0872 45.4142 38.7121C45.0391 38.337 44.5304 38.1263 44 38.1263H32C31.4696 38.1263 30.9609 38.337 30.5858 38.7121C30.2107 39.0872 30 39.5959 30 40.1263V52.1263ZM34 42.1263H42V50.1263H34V42.1263ZM50 52.1263C50 52.6567 50.2107 53.1655 50.5858 53.5405C50.9609 53.9156 51.4696 54.1263 52 54.1263H64C64.5304 54.1263 65.0391 53.9156 65.4142 53.5405C65.7893 53.1655 66 52.6567 66 52.1263V40.1263C66 39.5959 65.7893 39.0872 65.4142 38.7121C65.0391 38.337 64.5304 38.1263 64 38.1263H52C51.4696 38.1263 50.9609 38.337 50.5858 38.7121C50.2107 39.0872 50 39.5959 50 40.1263V52.1263ZM54 42.1263H62V50.1263H54V42.1263Z" fill="#BDBDBD"/>
<rect width="96" height="96" rx="20" fill="black" fill-opacity="0.2"/>
<rect x="18" y="33" width="60" height="30" fill="#FFDB47"/>
<path d="M22.7255 53L26.3095 43.2H28.3255L31.9095 53H30.0055L29.2215 50.732H25.3995L24.6015 53H22.7255ZM25.8895 49.332H28.7315L27.3035 45.258L25.8895 49.332ZM35.4038 53.168C34.6945 53.168 34.0691 53.014 33.5278 52.706C32.9865 52.398 32.5571 51.9687 32.2398 51.418C31.9318 50.8673 31.7778 50.2373 31.7778 49.528C31.7778 48.8187 31.9318 48.1887 32.2398 47.638C32.5571 47.0873 32.9865 46.658 33.5278 46.35C34.0691 46.042 34.6945 45.888 35.4038 45.888C36.2905 45.888 37.0371 46.1213 37.6438 46.588C38.2505 47.0453 38.6378 47.68 38.8058 48.492H36.9158C36.8225 48.156 36.6358 47.8947 36.3558 47.708C36.0851 47.512 35.7631 47.414 35.3898 47.414C34.8951 47.414 34.4751 47.6007 34.1298 47.974C33.7845 48.3473 33.6118 48.8653 33.6118 49.528C33.6118 50.1907 33.7845 50.7087 34.1298 51.082C34.4751 51.4553 34.8951 51.642 35.3898 51.642C35.7631 51.642 36.0851 51.5487 36.3558 51.362C36.6358 51.1753 36.8225 50.9093 36.9158 50.564H38.8058C38.6378 51.348 38.2505 51.978 37.6438 52.454C37.0371 52.93 36.2905 53.168 35.4038 53.168ZM42.5946 53C41.8666 53 41.2833 52.8227 40.8446 52.468C40.406 52.1133 40.1866 51.4833 40.1866 50.578V47.554H38.9966V46.056H40.1866L40.3966 44.194H41.9786V46.056H43.8546V47.554H41.9786V50.592C41.9786 50.928 42.0486 51.1613 42.1886 51.292C42.338 51.4133 42.59 51.474 42.9446 51.474H43.8126V53H42.5946ZM45.5592 44.978C45.2325 44.978 44.9619 44.88 44.7472 44.684C44.5419 44.488 44.4392 44.2407 44.4392 43.942C44.4392 43.6433 44.5419 43.4007 44.7472 43.214C44.9619 43.018 45.2325 42.92 45.5592 42.92C45.8859 42.92 46.1519 43.018 46.3572 43.214C46.5719 43.4007 46.6792 43.6433 46.6792 43.942C46.6792 44.2407 46.5719 44.488 46.3572 44.684C46.1519 44.88 45.8859 44.978 45.5592 44.978ZM44.6632 53V46.056H46.4552V53H44.6632ZM49.4016 53L46.8536 46.056H48.7296L50.4936 51.306L52.2576 46.056H54.1336L51.5716 53H49.4016ZM56.4341 53.168C55.8367 53.168 55.3467 53.0747 54.9641 52.888C54.5814 52.692 54.2967 52.4353 54.1101 52.118C53.9234 51.8007 53.8301 51.4507 53.8301 51.068C53.8301 50.424 54.0821 49.9013 54.5861 49.5C55.0901 49.0987 55.8461 48.898 56.8541 48.898H58.6181V48.73C58.6181 48.254 58.4827 47.904 58.2121 47.68C57.9414 47.456 57.6054 47.344 57.2041 47.344C56.8401 47.344 56.5227 47.4327 56.2521 47.61C55.9814 47.778 55.8134 48.03 55.7481 48.366H53.9981C54.0447 47.862 54.2127 47.4233 54.5021 47.05C54.8007 46.6767 55.1834 46.392 55.6501 46.196C56.1167 45.9907 56.6394 45.888 57.2181 45.888C58.2074 45.888 58.9867 46.1353 59.5561 46.63C60.1254 47.1247 60.4101 47.8247 60.4101 48.73V53H58.8841L58.7161 51.88C58.5107 52.2533 58.2214 52.5613 57.8481 52.804C57.4841 53.0467 57.0127 53.168 56.4341 53.168ZM56.8401 51.768C57.3534 51.768 57.7501 51.6 58.0301 51.264C58.3194 50.928 58.5014 50.5127 58.5761 50.018H57.0501C56.5741 50.018 56.2334 50.1067 56.0281 50.284C55.8227 50.452 55.7201 50.662 55.7201 50.914C55.7201 51.1847 55.8227 51.3947 56.0281 51.544C56.2334 51.6933 56.5041 51.768 56.8401 51.768ZM64.3185 53C63.5905 53 63.0071 52.8227 62.5685 52.468C62.1298 52.1133 61.9105 51.4833 61.9105 50.578V47.554H60.7205V46.056H61.9105L62.1205 44.194H63.7025V46.056H65.5785V47.554H63.7025V50.592C63.7025 50.928 63.7725 51.1613 63.9125 51.292C64.0618 51.4133 64.3138 51.474 64.6685 51.474H65.5365V53H64.3185ZM69.5133 53.168C68.8133 53.168 68.1926 53.0187 67.6513 52.72C67.11 52.4213 66.6853 52.0013 66.3773 51.46C66.0693 50.9187 65.9153 50.2933 65.9153 49.584C65.9153 48.8653 66.0646 48.226 66.3633 47.666C66.6713 47.106 67.0913 46.672 67.6233 46.364C68.1646 46.0467 68.7993 45.888 69.5273 45.888C70.2086 45.888 70.8106 46.0373 71.3333 46.336C71.856 46.6347 72.262 47.0453 72.5513 47.568C72.85 48.0813 72.9993 48.6553 72.9993 49.29C72.9993 49.3927 72.9946 49.5 72.9853 49.612C72.9853 49.724 72.9806 49.8407 72.9713 49.962H67.6933C67.7306 50.5033 67.9173 50.928 68.2533 51.236C68.5986 51.544 69.014 51.698 69.4993 51.698C69.8633 51.698 70.1666 51.6187 70.4093 51.46C70.6613 51.292 70.848 51.0773 70.9693 50.816H72.7893C72.6586 51.2547 72.4393 51.656 72.1313 52.02C71.8326 52.3747 71.4593 52.6547 71.0113 52.86C70.5726 53.0653 70.0733 53.168 69.5133 53.168ZM69.5273 47.344C69.0886 47.344 68.7013 47.47 68.3653 47.722C68.0293 47.9647 67.8146 48.338 67.7213 48.842H71.1793C71.1513 48.3847 70.9833 48.0207 70.6753 47.75C70.3673 47.4793 69.9846 47.344 69.5273 47.344Z" fill="black"/>
</svg>
