<svg width="96" height="96" viewBox="0 0 96 96" fill="none" xmlns="http://www.w3.org/2000/svg">
<rect width="96" height="96" rx="20" fill="#F3F6F8"/>
<path d="M25.0096 78.6632V68.8632H28.3556C29.5036 68.8632 30.4463 69.0685 31.1836 69.4792C31.9303 69.8805 32.481 70.4498 32.8356 71.1872C33.1996 71.9152 33.3816 72.7738 33.3816 73.7632C33.3816 74.7525 33.1996 75.6158 32.8356 76.3532C32.481 77.0812 31.9303 77.6505 31.1836 78.0612C30.4463 78.4625 29.5036 78.6632 28.3556 78.6632H25.0096ZM26.8016 77.1232H28.2716C29.093 77.1232 29.7416 76.9925 30.2176 76.7312C30.6936 76.4605 31.0343 76.0778 31.2396 75.5832C31.445 75.0792 31.5476 74.4725 31.5476 73.7632C31.5476 73.0632 31.445 72.4612 31.2396 71.9572C31.0343 71.4532 30.6936 71.0658 30.2176 70.7952C29.7416 70.5245 29.093 70.3892 28.2716 70.3892H26.8016V77.1232ZM37.4527 78.8312C36.7807 78.8312 36.1741 78.6772 35.6327 78.3692C35.1007 78.0612 34.6761 77.6365 34.3587 77.0952C34.0507 76.5445 33.8967 75.9098 33.8967 75.1912C33.8967 74.4725 34.0554 73.8425 34.3727 73.3012C34.6901 72.7505 35.1147 72.3212 35.6467 72.0132C36.1881 71.7052 36.7947 71.5512 37.4667 71.5512C38.1294 71.5512 38.7267 71.7052 39.2587 72.0132C39.8001 72.3212 40.2247 72.7505 40.5327 73.3012C40.8501 73.8425 41.0087 74.4725 41.0087 75.1912C41.0087 75.9098 40.8501 76.5445 40.5327 77.0952C40.2247 77.6365 39.8001 78.0612 39.2587 78.3692C38.7174 78.6772 38.1154 78.8312 37.4527 78.8312ZM37.4527 77.2772C37.9194 77.2772 38.3254 77.1045 38.6707 76.7592C39.0161 76.4045 39.1887 75.8818 39.1887 75.1912C39.1887 74.5005 39.0161 73.9825 38.6707 73.6372C38.3254 73.2825 37.9241 73.1052 37.4667 73.1052C36.9907 73.1052 36.5801 73.2825 36.2347 73.6372C35.8987 73.9825 35.7307 74.5005 35.7307 75.1912C35.7307 75.8818 35.8987 76.4045 36.2347 76.7592C36.5801 77.1045 36.9861 77.2772 37.4527 77.2772ZM41.811 78.6632V71.7192H43.393L43.547 72.6572C43.771 72.3212 44.065 72.0552 44.429 71.8592C44.8023 71.6538 45.2316 71.5512 45.717 71.5512C46.7903 71.5512 47.551 71.9665 47.999 72.7972C48.251 72.4145 48.587 72.1112 49.007 71.8872C49.4363 71.6632 49.903 71.5512 50.407 71.5512C51.3123 71.5512 52.0076 71.8218 52.493 72.3632C52.9783 72.9045 53.221 73.6978 53.221 74.7432V78.6632H51.429V74.9112C51.429 74.3138 51.3123 73.8565 51.079 73.5392C50.855 73.2218 50.505 73.0632 50.029 73.0632C49.5436 73.0632 49.1516 73.2405 48.853 73.5952C48.5636 73.9498 48.419 74.4445 48.419 75.0792V78.6632H46.627V74.9112C46.627 74.3138 46.5103 73.8565 46.277 73.5392C46.0436 73.2218 45.6843 73.0632 45.199 73.0632C44.723 73.0632 44.3356 73.2405 44.037 73.5952C43.7476 73.9498 43.603 74.4445 43.603 75.0792V78.6632H41.811ZM56.5163 78.8312C55.919 78.8312 55.429 78.7378 55.0463 78.5512C54.6636 78.3552 54.379 78.0985 54.1923 77.7812C54.0056 77.4638 53.9123 77.1138 53.9123 76.7312C53.9123 76.0872 54.1643 75.5645 54.6683 75.1632C55.1723 74.7618 55.9283 74.5612 56.9363 74.5612H58.7003V74.3932C58.7003 73.9172 58.565 73.5672 58.2943 73.3432C58.0236 73.1192 57.6876 73.0072 57.2863 73.0072C56.9223 73.0072 56.605 73.0958 56.3343 73.2732C56.0636 73.4412 55.8956 73.6932 55.8303 74.0292H54.0803C54.127 73.5252 54.295 73.0865 54.5843 72.7132C54.883 72.3398 55.2656 72.0552 55.7323 71.8592C56.199 71.6538 56.7216 71.5512 57.3003 71.5512C58.2896 71.5512 59.069 71.7985 59.6383 72.2932C60.2076 72.7878 60.4923 73.4878 60.4923 74.3932V78.6632H58.9663L58.7983 77.5432C58.593 77.9165 58.3036 78.2245 57.9303 78.4672C57.5663 78.7098 57.095 78.8312 56.5163 78.8312ZM56.9223 77.4312C57.4356 77.4312 57.8323 77.2632 58.1123 76.9272C58.4016 76.5912 58.5836 76.1758 58.6583 75.6812H57.1323C56.6563 75.6812 56.3156 75.7698 56.1103 75.9472C55.905 76.1152 55.8023 76.3252 55.8023 76.5772C55.8023 76.8478 55.905 77.0578 56.1103 77.2072C56.3156 77.3565 56.5863 77.4312 56.9223 77.4312ZM62.3684 70.6412C62.0417 70.6412 61.771 70.5432 61.5564 70.3472C61.351 70.1512 61.2484 69.9038 61.2484 69.6052C61.2484 69.3065 61.351 69.0638 61.5564 68.8772C61.771 68.6812 62.0417 68.5832 62.3684 68.5832C62.695 68.5832 62.961 68.6812 63.1664 68.8772C63.381 69.0638 63.4884 69.3065 63.4884 69.6052C63.4884 69.9038 63.381 70.1512 63.1664 70.3472C62.961 70.5432 62.695 70.6412 62.3684 70.6412ZM61.4724 78.6632V71.7192H63.2644V78.6632H61.4724ZM64.3348 78.6632V71.7192H65.9168L66.0568 72.8952C66.2715 72.4845 66.5795 72.1578 66.9808 71.9152C67.3915 71.6725 67.8721 71.5512 68.4228 71.5512C69.2815 71.5512 69.9488 71.8218 70.4248 72.3632C70.9008 72.9045 71.1388 73.6978 71.1388 74.7432V78.6632H69.3468V74.9112C69.3468 74.3138 69.2255 73.8565 68.9828 73.5392C68.7401 73.2218 68.3621 73.0632 67.8488 73.0632C67.3448 73.0632 66.9295 73.2405 66.6028 73.5952C66.2855 73.9498 66.1268 74.4445 66.1268 75.0792V78.6632H64.3348Z" fill="#BDBDBD"/>
<path d="M48 16C36.972 16 28 24.972 28 36C28 47.028 36.972 56 48 56C59.028 56 68 47.028 68 36C68 24.972 59.028 16 48 16ZM63.862 34H58.334C58.0873 29.6225 56.8626 25.3559 54.75 21.514C57.1984 22.6581 59.3177 24.4028 60.9108 26.5858C62.504 28.7689 63.5192 31.3193 63.862 34ZM49.06 20.054C51.13 22.782 53.914 27.614 54.314 34H42.06C42.338 28.808 44.048 23.944 46.962 20.052C47.306 20.032 47.65 20 48 20C48.358 20 48.708 20.032 49.06 20.054ZM41.376 21.454C39.408 25.236 38.272 29.524 38.06 34H32.138C32.4835 31.2957 33.5133 28.7242 35.1298 26.5288C36.7463 24.3335 38.8962 22.5868 41.376 21.454ZM32.138 38H38.086C38.358 42.758 39.416 46.956 41.198 50.46C38.7624 49.3119 36.6555 47.5684 35.0719 45.3906C33.4884 43.2128 32.4793 40.6709 32.138 38ZM46.9 51.946C44.098 48.55 42.444 43.792 42.082 38H54.308C53.892 43.546 52.074 48.392 49.102 51.944C48.738 51.968 48.374 52 48 52C47.628 52 47.266 51.968 46.9 51.946ZM54.922 50.402C56.832 46.814 57.998 42.6 58.304 38H63.86C63.5225 40.6486 62.5279 43.1706 60.9669 45.3367C59.4058 47.5028 57.3278 49.244 54.922 50.402Z" fill="#BDBDBD"/>
<rect width="96" height="96" rx="20" fill="black" fill-opacity="0.2"/>
<rect x="18" y="33" width="60" height="30" fill="#FFDB47"/>
<path d="M22.7255 53L26.3095 43.2H28.3255L31.9095 53H30.0055L29.2215 50.732H25.3995L24.6015 53H22.7255ZM25.8895 49.332H28.7315L27.3035 45.258L25.8895 49.332ZM35.4038 53.168C34.6945 53.168 34.0691 53.014 33.5278 52.706C32.9865 52.398 32.5571 51.9687 32.2398 51.418C31.9318 50.8673 31.7778 50.2373 31.7778 49.528C31.7778 48.8187 31.9318 48.1887 32.2398 47.638C32.5571 47.0873 32.9865 46.658 33.5278 46.35C34.0691 46.042 34.6945 45.888 35.4038 45.888C36.2905 45.888 37.0371 46.1213 37.6438 46.588C38.2505 47.0453 38.6378 47.68 38.8058 48.492H36.9158C36.8225 48.156 36.6358 47.8947 36.3558 47.708C36.0851 47.512 35.7631 47.414 35.3898 47.414C34.8951 47.414 34.4751 47.6007 34.1298 47.974C33.7845 48.3473 33.6118 48.8653 33.6118 49.528C33.6118 50.1907 33.7845 50.7087 34.1298 51.082C34.4751 51.4553 34.8951 51.642 35.3898 51.642C35.7631 51.642 36.0851 51.5487 36.3558 51.362C36.6358 51.1753 36.8225 50.9093 36.9158 50.564H38.8058C38.6378 51.348 38.2505 51.978 37.6438 52.454C37.0371 52.93 36.2905 53.168 35.4038 53.168ZM42.5946 53C41.8666 53 41.2833 52.8227 40.8446 52.468C40.406 52.1133 40.1866 51.4833 40.1866 50.578V47.554H38.9966V46.056H40.1866L40.3966 44.194H41.9786V46.056H43.8546V47.554H41.9786V50.592C41.9786 50.928 42.0486 51.1613 42.1886 51.292C42.338 51.4133 42.59 51.474 42.9446 51.474H43.8126V53H42.5946ZM45.5592 44.978C45.2325 44.978 44.9619 44.88 44.7472 44.684C44.5419 44.488 44.4392 44.2407 44.4392 43.942C44.4392 43.6433 44.5419 43.4007 44.7472 43.214C44.9619 43.018 45.2325 42.92 45.5592 42.92C45.8859 42.92 46.1519 43.018 46.3572 43.214C46.5719 43.4007 46.6792 43.6433 46.6792 43.942C46.6792 44.2407 46.5719 44.488 46.3572 44.684C46.1519 44.88 45.8859 44.978 45.5592 44.978ZM44.6632 53V46.056H46.4552V53H44.6632ZM49.4016 53L46.8536 46.056H48.7296L50.4936 51.306L52.2576 46.056H54.1336L51.5716 53H49.4016ZM56.4341 53.168C55.8367 53.168 55.3467 53.0747 54.9641 52.888C54.5814 52.692 54.2967 52.4353 54.1101 52.118C53.9234 51.8007 53.8301 51.4507 53.8301 51.068C53.8301 50.424 54.0821 49.9013 54.5861 49.5C55.0901 49.0987 55.8461 48.898 56.8541 48.898H58.6181V48.73C58.6181 48.254 58.4827 47.904 58.2121 47.68C57.9414 47.456 57.6054 47.344 57.2041 47.344C56.8401 47.344 56.5227 47.4327 56.2521 47.61C55.9814 47.778 55.8134 48.03 55.7481 48.366H53.9981C54.0447 47.862 54.2127 47.4233 54.5021 47.05C54.8007 46.6767 55.1834 46.392 55.6501 46.196C56.1167 45.9907 56.6394 45.888 57.2181 45.888C58.2074 45.888 58.9867 46.1353 59.5561 46.63C60.1254 47.1247 60.4101 47.8247 60.4101 48.73V53H58.8841L58.7161 51.88C58.5107 52.2533 58.2214 52.5613 57.8481 52.804C57.4841 53.0467 57.0127 53.168 56.4341 53.168ZM56.8401 51.768C57.3534 51.768 57.7501 51.6 58.0301 51.264C58.3194 50.928 58.5014 50.5127 58.5761 50.018H57.0501C56.5741 50.018 56.2334 50.1067 56.0281 50.284C55.8227 50.452 55.7201 50.662 55.7201 50.914C55.7201 51.1847 55.8227 51.3947 56.0281 51.544C56.2334 51.6933 56.5041 51.768 56.8401 51.768ZM64.3185 53C63.5905 53 63.0071 52.8227 62.5685 52.468C62.1298 52.1133 61.9105 51.4833 61.9105 50.578V47.554H60.7205V46.056H61.9105L62.1205 44.194H63.7025V46.056H65.5785V47.554H63.7025V50.592C63.7025 50.928 63.7725 51.1613 63.9125 51.292C64.0618 51.4133 64.3138 51.474 64.6685 51.474H65.5365V53H64.3185ZM69.5133 53.168C68.8133 53.168 68.1926 53.0187 67.6513 52.72C67.11 52.4213 66.6853 52.0013 66.3773 51.46C66.0693 50.9187 65.9153 50.2933 65.9153 49.584C65.9153 48.8653 66.0646 48.226 66.3633 47.666C66.6713 47.106 67.0913 46.672 67.6233 46.364C68.1646 46.0467 68.7993 45.888 69.5273 45.888C70.2086 45.888 70.8106 46.0373 71.3333 46.336C71.856 46.6347 72.262 47.0453 72.5513 47.568C72.85 48.0813 72.9993 48.6553 72.9993 49.29C72.9993 49.3927 72.9946 49.5 72.9853 49.612C72.9853 49.724 72.9806 49.8407 72.9713 49.962H67.6933C67.7306 50.5033 67.9173 50.928 68.2533 51.236C68.5986 51.544 69.014 51.698 69.4993 51.698C69.8633 51.698 70.1666 51.6187 70.4093 51.46C70.6613 51.292 70.848 51.0773 70.9693 50.816H72.7893C72.6586 51.2547 72.4393 51.656 72.1313 52.02C71.8326 52.3747 71.4593 52.6547 71.0113 52.86C70.5726 53.0653 70.0733 53.168 69.5133 53.168ZM69.5273 47.344C69.0886 47.344 68.7013 47.47 68.3653 47.722C68.0293 47.9647 67.8146 48.338 67.7213 48.842H71.1793C71.1513 48.3847 70.9833 48.0207 70.6753 47.75C70.3673 47.4793 69.9846 47.344 69.5273 47.344Z" fill="black"/>
</svg>
