<svg width="56" height="56" viewBox="0 0 56 56" fill="none" xmlns="http://www.w3.org/2000/svg">
<rect width="56" height="56" rx="20" fill="#F8F8FA"/>
<path d="M21.5663 26.7133C23.6284 24.6512 27.2247 24.6512 29.2867 26.7133L30.5735 28L33.147 25.4265L31.8602 24.1398C30.144 22.4217 27.858 21.4735 25.4265 21.4735C22.995 21.4735 20.7091 22.4217 18.9928 24.1398L15.1308 28C13.4278 29.7085 12.4715 32.0223 12.4715 34.4346C12.4715 36.8469 13.4278 39.1608 15.1308 40.8692C15.975 41.7147 16.978 42.385 18.0821 42.8416C19.1862 43.2982 20.3697 43.5322 21.5645 43.5301C22.7596 43.5326 23.9434 43.2987 25.0479 42.8421C26.1523 42.3855 27.1556 41.715 28 40.8692L29.2867 39.5825L26.7133 37.009L25.4265 38.2957C24.4009 39.3168 23.0126 39.89 21.5654 39.89C20.1182 39.89 18.7299 39.3168 17.7043 38.2957C16.6823 37.2706 16.1085 35.8821 16.1085 34.4346C16.1085 32.9871 16.6823 31.5986 17.7043 30.5735L21.5663 26.7133Z" fill="#219653"/>
<path d="M28 15.1308L26.7132 16.4175L29.2867 18.991L30.5735 17.7042C31.5991 16.6832 32.9874 16.11 34.4346 16.11C35.8818 16.11 37.2701 16.6832 38.2957 17.7042C39.3177 18.7294 39.8915 20.1179 39.8915 21.5654C39.8915 23.0129 39.3177 24.4013 38.2957 25.4265L34.4337 29.2867C32.3716 31.3488 28.7753 31.3488 26.7132 29.2867L25.4265 28L22.853 30.5735L24.1398 31.8602C25.856 33.5783 28.1419 34.5265 30.5735 34.5265C33.005 34.5265 35.2909 33.5783 37.0072 31.8602L40.8692 28C42.5722 26.2915 43.5285 23.9776 43.5285 21.5654C43.5285 19.1531 42.5722 16.8392 40.8692 15.1308C39.1612 13.4269 36.8472 12.47 34.4346 12.47C32.022 12.47 29.708 13.4269 28 15.1308Z" fill="#219653"/>
</svg>
