<svg width="96" height="96" viewBox="0 0 96 96" fill="none" xmlns="http://www.w3.org/2000/svg">
<rect width="96" height="96" rx="20" fill="#F3F6F8"/>
<path d="M33.0862 78.6632V68.8632H34.8782V77.2632H39.2182V78.6632H33.0862ZM40.9211 70.6412C40.5944 70.6412 40.3238 70.5432 40.1091 70.3472C39.9038 70.1512 39.8011 69.9038 39.8011 69.6052C39.8011 69.3065 39.9038 69.0638 40.1091 68.8772C40.3238 68.6812 40.5944 68.5832 40.9211 68.5832C41.2478 68.5832 41.5138 68.6812 41.7191 68.8772C41.9338 69.0638 42.0411 69.3065 42.0411 69.6052C42.0411 69.9038 41.9338 70.1512 41.7191 70.3472C41.5138 70.5432 41.2478 70.6412 40.9211 70.6412ZM40.0251 78.6632V71.7192H41.8171V78.6632H40.0251ZM42.8875 78.6632V71.7192H44.4695L44.6095 72.8952C44.8242 72.4845 45.1322 72.1578 45.5335 71.9152C45.9442 71.6725 46.4249 71.5512 46.9755 71.5512C47.8342 71.5512 48.5015 71.8218 48.9775 72.3632C49.4535 72.9045 49.6915 73.6978 49.6915 74.7432V78.6632H47.8995V74.9112C47.8995 74.3138 47.7782 73.8565 47.5355 73.5392C47.2929 73.2218 46.9149 73.0632 46.4015 73.0632C45.8975 73.0632 45.4822 73.2405 45.1555 73.5952C44.8382 73.9498 44.6795 74.4445 44.6795 75.0792V78.6632H42.8875ZM50.6051 78.6632V68.5832H52.3971V74.5332L54.8611 71.7192H56.9891L54.1471 74.8832L57.4511 78.6632H55.2111L52.3971 75.1772V78.6632H50.6051ZM60.2903 78.8312C59.6743 78.8312 59.133 78.7332 58.6663 78.5372C58.1997 78.3318 57.8263 78.0518 57.5463 77.6972C57.2663 77.3425 57.0983 76.9318 57.0423 76.4652H58.8483C58.9043 76.7358 59.0537 76.9692 59.2963 77.1652C59.5483 77.3518 59.8703 77.4452 60.2623 77.4452C60.6543 77.4452 60.939 77.3658 61.1163 77.2072C61.303 77.0485 61.3963 76.8665 61.3963 76.6612C61.3963 76.3625 61.2657 76.1618 61.0043 76.0592C60.743 75.9472 60.379 75.8398 59.9123 75.7372C59.6137 75.6718 59.3103 75.5925 59.0023 75.4992C58.6943 75.4058 58.4097 75.2892 58.1483 75.1492C57.8963 74.9998 57.691 74.8132 57.5323 74.5892C57.3737 74.3558 57.2943 74.0712 57.2943 73.7352C57.2943 73.1192 57.537 72.6012 58.0223 72.1812C58.517 71.7612 59.2077 71.5512 60.0943 71.5512C60.9157 71.5512 61.569 71.7425 62.0543 72.1252C62.549 72.5078 62.843 73.0352 62.9363 73.7072H61.2423C61.1397 73.1938 60.7523 72.9372 60.0803 72.9372C59.7443 72.9372 59.483 73.0025 59.2963 73.1332C59.119 73.2638 59.0303 73.4272 59.0303 73.6232C59.0303 73.8285 59.1657 73.9918 59.4363 74.1132C59.707 74.2345 60.0663 74.3465 60.5143 74.4492C60.9997 74.5612 61.443 74.6872 61.8443 74.8272C62.255 74.9578 62.5817 75.1585 62.8243 75.4292C63.067 75.6905 63.1883 76.0685 63.1883 76.5632C63.1977 76.9925 63.0857 77.3798 62.8523 77.7252C62.619 78.0705 62.283 78.3412 61.8443 78.5372C61.4057 78.7332 60.8877 78.8312 60.2903 78.8312Z" fill="#171717"/>
<path d="M40.9299 34.586C43.1959 32.32 47.1479 32.32 49.4139 34.586L50.8279 36L53.6559 33.172L52.2419 31.758C50.3559 29.87 47.8439 28.828 45.1719 28.828C42.4999 28.828 39.9879 29.87 38.1019 31.758L33.8579 36C31.9865 37.8774 30.9357 40.4202 30.9357 43.071C30.9357 45.7218 31.9865 48.2646 33.8579 50.142C34.7857 51.0711 35.8879 51.8077 37.1012 52.3095C38.3145 52.8113 39.615 53.0684 40.9279 53.066C42.2412 53.0687 43.5422 52.8118 44.7558 52.31C45.9695 51.8082 47.072 51.0714 47.9999 50.142L49.4139 48.728L46.5859 45.9L45.1719 47.314C44.0449 48.436 42.5193 49.0659 40.9289 49.0659C39.3386 49.0659 37.813 48.436 36.6859 47.314C35.5629 46.1875 34.9323 44.6617 34.9323 43.071C34.9323 41.4803 35.5629 39.9545 36.6859 38.828L40.9299 34.586Z" fill="black"/>
<path d="M48 21.858L46.586 23.272L49.414 26.1L50.828 24.686C51.9551 23.564 53.4807 22.9341 55.071 22.9341C56.6613 22.9341 58.1869 23.564 59.314 24.686C60.437 25.8125 61.0676 27.3383 61.0676 28.929C61.0676 30.5197 60.437 32.0455 59.314 33.172L55.07 37.414C52.804 39.68 48.852 39.68 46.586 37.414L45.172 36L42.344 38.828L43.758 40.242C45.644 42.13 48.156 43.172 50.828 43.172C53.5 43.172 56.012 42.13 57.898 40.242L62.142 36C64.0134 34.1226 65.0643 31.5798 65.0643 28.929C65.0643 26.2782 64.0134 23.7354 62.142 21.858C60.2651 19.9856 57.7222 18.9341 55.071 18.9341C52.4198 18.9341 49.8769 19.9856 48 21.858Z" fill="black"/>
</svg>
