<svg width="162" height="32" viewBox="0 0 162 32" fill="none" xmlns="http://www.w3.org/2000/svg">
<path d="M62.544 17.068C62.9733 16.62 63.4307 16.144 63.916 15.64C64.4013 15.1173 64.8773 14.604 65.344 14.1C65.8107 13.5773 66.2493 13.0827 66.66 12.616C67.0893 12.1307 67.4533 11.7107 67.752 11.356H71.756C70.8227 12.4013 69.8333 13.484 68.788 14.604C67.7613 15.724 66.7253 16.816 65.68 17.88C66.24 18.3467 66.828 18.916 67.444 19.588C68.06 20.2413 68.6573 20.9413 69.236 21.688C69.8147 22.4347 70.356 23.1813 70.86 23.928C71.364 24.6747 71.784 25.3653 72.12 26H68.2C67.864 25.4213 67.472 24.8147 67.024 24.18C66.5947 23.5453 66.128 22.9293 65.624 22.332C65.12 21.7347 64.6067 21.1747 64.084 20.652C63.5613 20.1107 63.048 19.6533 62.544 19.28V26H59.156V4.832L62.544 4.272V17.068ZM79.7299 23.62C80.7752 23.62 81.5685 23.564 82.1099 23.452V19.7C81.9232 19.644 81.6525 19.588 81.2979 19.532C80.9432 19.476 80.5512 19.448 80.1219 19.448C79.7485 19.448 79.3659 19.476 78.9739 19.532C78.6005 19.588 78.2552 19.6907 77.9379 19.84C77.6392 19.9893 77.3965 20.204 77.2099 20.484C77.0232 20.7453 76.9299 21.0813 76.9299 21.492C76.9299 22.2947 77.1819 22.8547 77.6859 23.172C78.1899 23.4707 78.8712 23.62 79.7299 23.62ZM79.4499 10.992C80.5699 10.992 81.5125 11.132 82.2779 11.412C83.0432 11.692 83.6499 12.084 84.0979 12.588C84.5645 13.092 84.8912 13.708 85.0779 14.436C85.2832 15.1453 85.3859 15.9293 85.3859 16.788V25.664C84.8632 25.776 84.0699 25.9067 83.0059 26.056C81.9605 26.224 80.7752 26.308 79.4499 26.308C78.5725 26.308 77.7699 26.224 77.0419 26.056C76.3139 25.888 75.6885 25.6173 75.1659 25.244C74.6619 24.8707 74.2605 24.3853 73.9619 23.788C73.6819 23.1907 73.5419 22.4533 73.5419 21.576C73.5419 20.736 73.7005 20.0267 74.0179 19.448C74.3539 18.8693 74.8019 18.4027 75.3619 18.048C75.9219 17.6747 76.5659 17.4133 77.2939 17.264C78.0405 17.096 78.8152 17.012 79.6179 17.012C79.9912 17.012 80.3832 17.04 80.7939 17.096C81.2045 17.1333 81.6432 17.208 82.1099 17.32V16.76C82.1099 16.368 82.0632 15.9947 81.9699 15.64C81.8765 15.2853 81.7085 14.9773 81.4659 14.716C81.2419 14.436 80.9339 14.2213 80.5419 14.072C80.1685 13.9227 79.6925 13.848 79.1139 13.848C78.3299 13.848 77.6112 13.904 76.9579 14.016C76.3045 14.128 75.7725 14.2587 75.3619 14.408L74.9419 11.664C75.3712 11.5147 75.9965 11.3653 76.8179 11.216C77.6392 11.0667 78.5165 10.992 79.4499 10.992ZM89.3669 7.492L92.7549 6.932V11.356H97.9629V14.184H92.7549V20.148C92.7549 21.324 92.9416 22.164 93.3149 22.668C93.6882 23.172 94.3229 23.424 95.2189 23.424C95.8349 23.424 96.3762 23.3587 96.8429 23.228C97.3282 23.0973 97.7109 22.976 97.9909 22.864L98.5509 25.552C98.1589 25.72 97.6456 25.888 97.0109 26.056C96.3762 26.2427 95.6296 26.336 94.7709 26.336C93.7256 26.336 92.8482 26.196 92.1389 25.916C91.4482 25.636 90.8976 25.2347 90.4869 24.712C90.0762 24.1707 89.7869 23.5267 89.6189 22.78C89.4509 22.0147 89.3669 21.1467 89.3669 20.176V7.492ZM106.39 23.62C107.435 23.62 108.229 23.564 108.77 23.452V19.7C108.583 19.644 108.313 19.588 107.958 19.532C107.603 19.476 107.211 19.448 106.782 19.448C106.409 19.448 106.026 19.476 105.634 19.532C105.261 19.588 104.915 19.6907 104.598 19.84C104.299 19.9893 104.057 20.204 103.87 20.484C103.683 20.7453 103.59 21.0813 103.59 21.492C103.59 22.2947 103.842 22.8547 104.346 23.172C104.85 23.4707 105.531 23.62 106.39 23.62ZM106.11 10.992C107.23 10.992 108.173 11.132 108.938 11.412C109.703 11.692 110.31 12.084 110.758 12.588C111.225 13.092 111.551 13.708 111.738 14.436C111.943 15.1453 112.046 15.9293 112.046 16.788V25.664C111.523 25.776 110.73 25.9067 109.666 26.056C108.621 26.224 107.435 26.308 106.11 26.308C105.233 26.308 104.43 26.224 103.702 26.056C102.974 25.888 102.349 25.6173 101.826 25.244C101.322 24.8707 100.921 24.3853 100.622 23.788C100.342 23.1907 100.202 22.4533 100.202 21.576C100.202 20.736 100.361 20.0267 100.678 19.448C101.014 18.8693 101.462 18.4027 102.022 18.048C102.582 17.6747 103.226 17.4133 103.954 17.264C104.701 17.096 105.475 17.012 106.278 17.012C106.651 17.012 107.043 17.04 107.454 17.096C107.865 17.1333 108.303 17.208 108.77 17.32V16.76C108.77 16.368 108.723 15.9947 108.63 15.64C108.537 15.2853 108.369 14.9773 108.126 14.716C107.902 14.436 107.594 14.2213 107.202 14.072C106.829 13.9227 106.353 13.848 105.774 13.848C104.99 13.848 104.271 13.904 103.618 14.016C102.965 14.128 102.433 14.2587 102.022 14.408L101.602 11.664C102.031 11.5147 102.657 11.3653 103.478 11.216C104.299 11.0667 105.177 10.992 106.11 10.992ZM121.291 26.28C120.283 26.2613 119.443 26.1493 118.771 25.944C118.118 25.7387 117.595 25.4493 117.203 25.076C116.811 24.684 116.531 24.208 116.363 23.648C116.214 23.0693 116.139 22.416 116.139 21.688V4.832L119.527 4.272V21.044C119.527 21.4547 119.555 21.8 119.611 22.08C119.686 22.36 119.807 22.6027 119.975 22.808C120.143 22.9947 120.367 23.144 120.647 23.256C120.946 23.3493 121.319 23.424 121.767 23.48L121.291 26.28ZM127.924 26H124.536V11.356H127.924V26ZM128.288 7.072C128.288 7.70667 128.082 8.21067 127.672 8.584C127.261 8.95733 126.776 9.144 126.216 9.144C125.637 9.144 125.142 8.95733 124.732 8.584C124.321 8.21067 124.116 7.70667 124.116 7.072C124.116 6.41867 124.321 5.90533 124.732 5.532C125.142 5.15867 125.637 4.972 126.216 4.972C126.776 4.972 127.261 5.15867 127.672 5.532C128.082 5.90533 128.288 6.41867 128.288 7.072ZM132.246 11.832C132.899 11.6453 133.749 11.468 134.794 11.3C135.839 11.132 136.997 11.048 138.266 11.048C139.461 11.048 140.459 11.216 141.262 11.552C142.065 11.8693 142.699 12.3267 143.166 12.924C143.651 13.5027 143.987 14.212 144.174 15.052C144.379 15.8733 144.482 16.7787 144.482 17.768V26H141.094V18.3C141.094 17.516 141.038 16.8533 140.926 16.312C140.833 15.752 140.665 15.304 140.422 14.968C140.198 14.6133 139.881 14.3613 139.47 14.212C139.078 14.044 138.593 13.96 138.014 13.96C137.585 13.96 137.137 13.988 136.67 14.044C136.203 14.1 135.858 14.1467 135.634 14.184V26H132.246V11.832ZM152.013 17.068C152.442 16.62 152.899 16.144 153.385 15.64C153.87 15.1173 154.346 14.604 154.813 14.1C155.279 13.5773 155.718 13.0827 156.129 12.616C156.558 12.1307 156.922 11.7107 157.221 11.356H161.225C160.291 12.4013 159.302 13.484 158.257 14.604C157.23 15.724 156.194 16.816 155.149 17.88C155.709 18.3467 156.297 18.916 156.913 19.588C157.529 20.2413 158.126 20.9413 158.705 21.688C159.283 22.4347 159.825 23.1813 160.329 23.928C160.833 24.6747 161.253 25.3653 161.589 26H157.669C157.333 25.4213 156.941 24.8147 156.493 24.18C156.063 23.5453 155.597 22.9293 155.093 22.332C154.589 21.7347 154.075 21.1747 153.553 20.652C153.03 20.1107 152.517 19.6533 152.013 19.28V26H148.625V4.832L152.013 4.272V17.068Z" fill="#1B1D28"/>
<circle cx="15.5" cy="16.5" r="15.5" fill="#FFAC30"/>
<path d="M47 16.5C47 20.6109 45.367 24.5533 42.4602 27.4602C39.5533 30.367 35.6109 32 31.5 32C27.3891 32 23.4467 30.367 20.5398 27.4602C17.633 24.5533 16 20.6109 16 16.5L31.5 16.5H47Z" fill="#3A4276"/>
</svg>
