<svg width="96" height="96" viewBox="0 0 96 96" fill="none" xmlns="http://www.w3.org/2000/svg">
<rect width="96" height="96" rx="20" fill="#F3F6F8"/>
<path d="M25.7141 78.8312C24.9954 78.8312 24.3701 78.7005 23.8381 78.4392C23.3061 78.1778 22.8954 77.8138 22.6061 77.3472C22.3167 76.8805 22.1721 76.3392 22.1721 75.7232H23.4041C23.4041 76.1058 23.4927 76.4605 23.6701 76.7872C23.8474 77.1045 24.1041 77.3612 24.4401 77.5572C24.7854 77.7438 25.2101 77.8372 25.7141 77.8372C26.3767 77.8372 26.8901 77.6785 27.2541 77.3612C27.6181 77.0438 27.8001 76.6472 27.8001 76.1712C27.8001 75.7792 27.7161 75.4665 27.5481 75.2332C27.3801 74.9905 27.1514 74.7945 26.8621 74.6452C26.5821 74.4958 26.2554 74.3652 25.8821 74.2532C25.5181 74.1412 25.1354 74.0152 24.7341 73.8752C23.9781 73.6138 23.4181 73.2918 23.0541 72.9092C22.6901 72.5172 22.5081 72.0085 22.5081 71.3832C22.4987 70.8605 22.6201 70.3985 22.8721 69.9972C23.1241 69.5865 23.4787 69.2692 23.9361 69.0452C24.4027 68.8118 24.9534 68.6952 25.5881 68.6952C26.2134 68.6952 26.7547 68.8118 27.2121 69.0452C27.6787 69.2785 28.0381 69.6005 28.2901 70.0112C28.5514 70.4218 28.6867 70.8885 28.6961 71.4112H27.4641C27.4641 71.1405 27.3941 70.8745 27.2541 70.6132C27.1141 70.3425 26.8994 70.1232 26.6101 69.9552C26.3301 69.7872 25.9754 69.7032 25.5461 69.7032C25.0141 69.6938 24.5754 69.8292 24.2301 70.1092C23.8941 70.3892 23.7261 70.7765 23.7261 71.2712C23.7261 71.6912 23.8427 72.0132 24.0761 72.2372C24.3187 72.4612 24.6547 72.6478 25.0841 72.7972C25.5134 72.9372 26.0081 73.1005 26.5681 73.2872C27.0347 73.4552 27.4547 73.6512 27.8281 73.8752C28.2014 74.0992 28.4907 74.3885 28.6961 74.7432C28.9107 75.0978 29.0181 75.5505 29.0181 76.1012C29.0181 76.5678 28.8967 77.0112 28.6541 77.4312C28.4114 77.8418 28.0427 78.1778 27.5481 78.4392C27.0627 78.7005 26.4514 78.8312 25.7141 78.8312ZM32.5598 78.6632C31.9251 78.6632 31.4258 78.5092 31.0618 78.2012C30.6978 77.8932 30.5158 77.3378 30.5158 76.5352V72.7132H29.3118V71.7192H30.5158L30.6698 70.0532H31.6918V71.7192H33.7358V72.7132H31.6918V76.5352C31.6918 76.9738 31.7805 77.2725 31.9578 77.4312C32.1351 77.5805 32.4478 77.6552 32.8958 77.6552H33.6238V78.6632H32.5598ZM36.7399 78.8312C36.1612 78.8312 35.6805 78.7332 35.2979 78.5372C34.9152 78.3412 34.6305 78.0798 34.4439 77.7532C34.2572 77.4265 34.1639 77.0718 34.1639 76.6892C34.1639 75.9798 34.4345 75.4338 34.9759 75.0512C35.5172 74.6685 36.2545 74.4772 37.1879 74.4772H39.0639V74.3932C39.0639 73.7865 38.9052 73.3292 38.5879 73.0212C38.2705 72.7038 37.8459 72.5452 37.3139 72.5452C36.8565 72.5452 36.4599 72.6618 36.1239 72.8952C35.7972 73.1192 35.5919 73.4505 35.5079 73.8892H34.3039C34.3505 73.3852 34.5185 72.9605 34.8079 72.6152C35.1065 72.2698 35.4752 72.0085 35.9139 71.8312C36.3525 71.6445 36.8192 71.5512 37.3139 71.5512C38.2845 71.5512 39.0125 71.8125 39.4979 72.3352C39.9925 72.8485 40.2399 73.5345 40.2399 74.3932V78.6632H39.1899L39.1199 77.4172C38.9239 77.8092 38.6345 78.1452 38.2519 78.4252C37.8785 78.6958 37.3745 78.8312 36.7399 78.8312ZM36.9219 77.8372C37.3699 77.8372 37.7525 77.7205 38.0699 77.4872C38.3965 77.2538 38.6439 76.9505 38.8119 76.5772C38.9799 76.2038 39.0639 75.8118 39.0639 75.4012V75.3872H37.2859C36.5952 75.3872 36.1052 75.5085 35.8159 75.7512C35.5359 75.9845 35.3959 76.2785 35.3959 76.6332C35.3959 76.9972 35.5265 77.2912 35.7879 77.5152C36.0585 77.7298 36.4365 77.8372 36.9219 77.8372ZM43.7567 78.6632C43.122 78.6632 42.6227 78.5092 42.2587 78.2012C41.8947 77.8932 41.7127 77.3378 41.7127 76.5352V72.7132H40.5087V71.7192H41.7127L41.8667 70.0532H42.8887V71.7192H44.9327V72.7132H42.8887V76.5352C42.8887 76.9738 42.9773 77.2725 43.1547 77.4312C43.332 77.5805 43.6447 77.6552 44.0927 77.6552H44.8207V78.6632H43.7567ZM46.3407 70.1792C46.1074 70.1792 45.9114 70.1045 45.7527 69.9552C45.6034 69.7965 45.5287 69.6005 45.5287 69.3672C45.5287 69.1432 45.6034 68.9565 45.7527 68.8072C45.9114 68.6578 46.1074 68.5832 46.3407 68.5832C46.5647 68.5832 46.7561 68.6578 46.9147 68.8072C47.0734 68.9565 47.1527 69.1432 47.1527 69.3672C47.1527 69.6005 47.0734 69.7965 46.9147 69.9552C46.7561 70.1045 46.5647 70.1792 46.3407 70.1792ZM45.7527 78.6632V71.7192H46.9287V78.6632H45.7527ZM50.8364 78.8312C50.0057 78.8312 49.315 78.6212 48.7644 78.2012C48.2137 77.7812 47.8917 77.2118 47.7984 76.4932H49.0024C49.077 76.8572 49.2684 77.1745 49.5764 77.4452C49.8937 77.7065 50.3184 77.8372 50.8504 77.8372C51.345 77.8372 51.709 77.7345 51.9424 77.5292C52.1757 77.3145 52.2924 77.0625 52.2924 76.7732C52.2924 76.3532 52.1384 76.0732 51.8304 75.9332C51.5317 75.7932 51.107 75.6672 50.5564 75.5552C50.183 75.4805 49.8097 75.3732 49.4364 75.2332C49.063 75.0932 48.7504 74.8972 48.4984 74.6452C48.2464 74.3838 48.1204 74.0432 48.1204 73.6232C48.1204 73.0165 48.3444 72.5218 48.7924 72.1392C49.2497 71.7472 49.8657 71.5512 50.6404 71.5512C51.3777 71.5512 51.9797 71.7378 52.4464 72.1112C52.9224 72.4752 53.1977 72.9978 53.2724 73.6792H52.1104C52.0637 73.3245 51.9097 73.0492 51.6484 72.8532C51.3964 72.6478 51.0557 72.5452 50.6264 72.5452C50.2064 72.5452 49.8797 72.6338 49.6464 72.8112C49.4224 72.9885 49.3104 73.2218 49.3104 73.5112C49.3104 73.7912 49.455 74.0105 49.7444 74.1692C50.043 74.3278 50.4444 74.4632 50.9484 74.5752C51.3777 74.6685 51.7837 74.7852 52.1664 74.9252C52.5584 75.0558 52.8757 75.2565 53.1184 75.5272C53.3704 75.7885 53.4964 76.1712 53.4964 76.6752C53.5057 77.3005 53.2677 77.8185 52.7824 78.2292C52.3064 78.6305 51.6577 78.8312 50.8364 78.8312ZM56.8059 78.6632C56.1712 78.6632 55.6719 78.5092 55.3079 78.2012C54.9439 77.8932 54.7619 77.3378 54.7619 76.5352V72.7132H53.5579V71.7192H54.7619L54.9159 70.0532H55.9379V71.7192H57.9819V72.7132H55.9379V76.5352C55.9379 76.9738 56.0266 77.2725 56.2039 77.4312C56.3812 77.5805 56.6939 77.6552 57.1419 77.6552H57.8699V78.6632H56.8059ZM59.39 70.1792C59.1566 70.1792 58.9606 70.1045 58.802 69.9552C58.6526 69.7965 58.578 69.6005 58.578 69.3672C58.578 69.1432 58.6526 68.9565 58.802 68.8072C58.9606 68.6578 59.1566 68.5832 59.39 68.5832C59.614 68.5832 59.8053 68.6578 59.964 68.8072C60.1226 68.9565 60.202 69.1432 60.202 69.3672C60.202 69.6005 60.1226 69.7965 59.964 69.9552C59.8053 70.1045 59.614 70.1792 59.39 70.1792ZM58.802 78.6632V71.7192H59.978V78.6632H58.802ZM64.4176 78.8312C63.7549 78.8312 63.1576 78.6818 62.6256 78.3832C62.1029 78.0752 61.6876 77.6505 61.3796 77.1092C61.0809 76.5585 60.9316 75.9192 60.9316 75.1912C60.9316 74.4632 61.0809 73.8285 61.3796 73.2872C61.6876 72.7365 62.1029 72.3118 62.6256 72.0132C63.1576 71.7052 63.7549 71.5512 64.4176 71.5512C65.2389 71.5512 65.9296 71.7658 66.4896 72.1952C67.0589 72.6245 67.4182 73.1985 67.5676 73.9172H66.3636C66.2702 73.4878 66.0416 73.1565 65.6776 72.9232C65.3136 72.6805 64.8889 72.5592 64.4036 72.5592C64.0116 72.5592 63.6429 72.6572 63.2976 72.8532C62.9522 73.0492 62.6722 73.3432 62.4576 73.7352C62.2429 74.1272 62.1356 74.6125 62.1356 75.1912C62.1356 75.7698 62.2429 76.2552 62.4576 76.6472C62.6722 77.0392 62.9522 77.3378 63.2976 77.5432C63.6429 77.7392 64.0116 77.8372 64.4036 77.8372C64.8889 77.8372 65.3136 77.7205 65.6776 77.4872C66.0416 77.2445 66.2702 76.9038 66.3636 76.4652H67.5676C67.4276 77.1652 67.0729 77.7345 66.5036 78.1732C65.9342 78.6118 65.2389 78.8312 64.4176 78.8312ZM71.0699 78.8312C70.2393 78.8312 69.5486 78.6212 68.9979 78.2012C68.4473 77.7812 68.1253 77.2118 68.0319 76.4932H69.2359C69.3106 76.8572 69.5019 77.1745 69.8099 77.4452C70.1273 77.7065 70.5519 77.8372 71.0839 77.8372C71.5786 77.8372 71.9426 77.7345 72.1759 77.5292C72.4093 77.3145 72.5259 77.0625 72.5259 76.7732C72.5259 76.3532 72.3719 76.0732 72.0639 75.9332C71.7653 75.7932 71.3406 75.6672 70.7899 75.5552C70.4166 75.4805 70.0433 75.3732 69.6699 75.2332C69.2966 75.0932 68.9839 74.8972 68.7319 74.6452C68.4799 74.3838 68.3539 74.0432 68.3539 73.6232C68.3539 73.0165 68.5779 72.5218 69.0259 72.1392C69.4833 71.7472 70.0993 71.5512 70.8739 71.5512C71.6113 71.5512 72.2133 71.7378 72.6799 72.1112C73.1559 72.4752 73.4313 72.9978 73.5059 73.6792H72.3439C72.2973 73.3245 72.1433 73.0492 71.8819 72.8532C71.6299 72.6478 71.2893 72.5452 70.8599 72.5452C70.4399 72.5452 70.1133 72.6338 69.8799 72.8112C69.6559 72.9885 69.5439 73.2218 69.5439 73.5112C69.5439 73.7912 69.6886 74.0105 69.9779 74.1692C70.2766 74.3278 70.6779 74.4632 71.1819 74.5752C71.6113 74.6685 72.0173 74.7852 72.3999 74.9252C72.7919 75.0558 73.1093 75.2565 73.3519 75.5272C73.6039 75.7885 73.7299 76.1712 73.7299 76.6752C73.7393 77.3005 73.5013 77.8185 73.0159 78.2292C72.5399 78.6305 71.8913 78.8312 71.0699 78.8312Z" fill="#BDBDBD"/>
<path d="M30 18V52C30 52.5304 30.2107 53.0391 30.5858 53.4142C30.9609 53.7893 31.4696 54 32 54H66V50H34V18H30Z" fill="#BDBDBD"/>
<path d="M54.5861 41.414C54.7716 41.5999 54.992 41.7474 55.2347 41.848C55.4773 41.9486 55.7374 42.0004 56.0001 42.0004C56.2627 42.0004 56.5228 41.9486 56.7654 41.848C57.0081 41.7474 57.2285 41.5999 57.4141 41.414L67.4141 31.414L64.5861 28.586L56.0001 37.172L51.4141 32.586C51.2285 32.4001 51.0081 32.2526 50.7654 32.152C50.5228 32.0514 50.2627 31.9996 50.0001 31.9996C49.7374 31.9996 49.4773 32.0514 49.2347 32.152C48.992 32.2526 48.7716 32.4001 48.5861 32.586L38.5861 42.586L41.4141 45.414L50.0001 36.828L54.5861 41.414Z" fill="#BDBDBD"/>
<rect width="96" height="96" rx="20" fill="black" fill-opacity="0.2"/>
<rect x="18" y="33" width="60" height="30" fill="#FFDB47"/>
<path d="M22.7255 53L26.3095 43.2H28.3255L31.9095 53H30.0055L29.2215 50.732H25.3995L24.6015 53H22.7255ZM25.8895 49.332H28.7315L27.3035 45.258L25.8895 49.332ZM35.4038 53.168C34.6945 53.168 34.0691 53.014 33.5278 52.706C32.9865 52.398 32.5571 51.9687 32.2398 51.418C31.9318 50.8673 31.7778 50.2373 31.7778 49.528C31.7778 48.8187 31.9318 48.1887 32.2398 47.638C32.5571 47.0873 32.9865 46.658 33.5278 46.35C34.0691 46.042 34.6945 45.888 35.4038 45.888C36.2905 45.888 37.0371 46.1213 37.6438 46.588C38.2505 47.0453 38.6378 47.68 38.8058 48.492H36.9158C36.8225 48.156 36.6358 47.8947 36.3558 47.708C36.0851 47.512 35.7631 47.414 35.3898 47.414C34.8951 47.414 34.4751 47.6007 34.1298 47.974C33.7845 48.3473 33.6118 48.8653 33.6118 49.528C33.6118 50.1907 33.7845 50.7087 34.1298 51.082C34.4751 51.4553 34.8951 51.642 35.3898 51.642C35.7631 51.642 36.0851 51.5487 36.3558 51.362C36.6358 51.1753 36.8225 50.9093 36.9158 50.564H38.8058C38.6378 51.348 38.2505 51.978 37.6438 52.454C37.0371 52.93 36.2905 53.168 35.4038 53.168ZM42.5946 53C41.8666 53 41.2833 52.8227 40.8446 52.468C40.406 52.1133 40.1866 51.4833 40.1866 50.578V47.554H38.9966V46.056H40.1866L40.3966 44.194H41.9786V46.056H43.8546V47.554H41.9786V50.592C41.9786 50.928 42.0486 51.1613 42.1886 51.292C42.338 51.4133 42.59 51.474 42.9446 51.474H43.8126V53H42.5946ZM45.5592 44.978C45.2325 44.978 44.9619 44.88 44.7472 44.684C44.5419 44.488 44.4392 44.2407 44.4392 43.942C44.4392 43.6433 44.5419 43.4007 44.7472 43.214C44.9619 43.018 45.2325 42.92 45.5592 42.92C45.8859 42.92 46.1519 43.018 46.3572 43.214C46.5719 43.4007 46.6792 43.6433 46.6792 43.942C46.6792 44.2407 46.5719 44.488 46.3572 44.684C46.1519 44.88 45.8859 44.978 45.5592 44.978ZM44.6632 53V46.056H46.4552V53H44.6632ZM49.4016 53L46.8536 46.056H48.7296L50.4936 51.306L52.2576 46.056H54.1336L51.5716 53H49.4016ZM56.4341 53.168C55.8367 53.168 55.3467 53.0747 54.9641 52.888C54.5814 52.692 54.2967 52.4353 54.1101 52.118C53.9234 51.8007 53.8301 51.4507 53.8301 51.068C53.8301 50.424 54.0821 49.9013 54.5861 49.5C55.0901 49.0987 55.8461 48.898 56.8541 48.898H58.6181V48.73C58.6181 48.254 58.4827 47.904 58.2121 47.68C57.9414 47.456 57.6054 47.344 57.2041 47.344C56.8401 47.344 56.5227 47.4327 56.2521 47.61C55.9814 47.778 55.8134 48.03 55.7481 48.366H53.9981C54.0447 47.862 54.2127 47.4233 54.5021 47.05C54.8007 46.6767 55.1834 46.392 55.6501 46.196C56.1167 45.9907 56.6394 45.888 57.2181 45.888C58.2074 45.888 58.9867 46.1353 59.5561 46.63C60.1254 47.1247 60.4101 47.8247 60.4101 48.73V53H58.8841L58.7161 51.88C58.5107 52.2533 58.2214 52.5613 57.8481 52.804C57.4841 53.0467 57.0127 53.168 56.4341 53.168ZM56.8401 51.768C57.3534 51.768 57.7501 51.6 58.0301 51.264C58.3194 50.928 58.5014 50.5127 58.5761 50.018H57.0501C56.5741 50.018 56.2334 50.1067 56.0281 50.284C55.8227 50.452 55.7201 50.662 55.7201 50.914C55.7201 51.1847 55.8227 51.3947 56.0281 51.544C56.2334 51.6933 56.5041 51.768 56.8401 51.768ZM64.3185 53C63.5905 53 63.0071 52.8227 62.5685 52.468C62.1298 52.1133 61.9105 51.4833 61.9105 50.578V47.554H60.7205V46.056H61.9105L62.1205 44.194H63.7025V46.056H65.5785V47.554H63.7025V50.592C63.7025 50.928 63.7725 51.1613 63.9125 51.292C64.0618 51.4133 64.3138 51.474 64.6685 51.474H65.5365V53H64.3185ZM69.5133 53.168C68.8133 53.168 68.1926 53.0187 67.6513 52.72C67.11 52.4213 66.6853 52.0013 66.3773 51.46C66.0693 50.9187 65.9153 50.2933 65.9153 49.584C65.9153 48.8653 66.0646 48.226 66.3633 47.666C66.6713 47.106 67.0913 46.672 67.6233 46.364C68.1646 46.0467 68.7993 45.888 69.5273 45.888C70.2086 45.888 70.8106 46.0373 71.3333 46.336C71.856 46.6347 72.262 47.0453 72.5513 47.568C72.85 48.0813 72.9993 48.6553 72.9993 49.29C72.9993 49.3927 72.9946 49.5 72.9853 49.612C72.9853 49.724 72.9806 49.8407 72.9713 49.962H67.6933C67.7306 50.5033 67.9173 50.928 68.2533 51.236C68.5986 51.544 69.014 51.698 69.4993 51.698C69.8633 51.698 70.1666 51.6187 70.4093 51.46C70.6613 51.292 70.848 51.0773 70.9693 50.816H72.7893C72.6586 51.2547 72.4393 51.656 72.1313 52.02C71.8326 52.3747 71.4593 52.6547 71.0113 52.86C70.5726 53.0653 70.0733 53.168 69.5133 53.168ZM69.5273 47.344C69.0886 47.344 68.7013 47.47 68.3653 47.722C68.0293 47.9647 67.8146 48.338 67.7213 48.842H71.1793C71.1513 48.3847 70.9833 48.0207 70.6753 47.75C70.3673 47.4793 69.9846 47.344 69.5273 47.344Z" fill="black"/>
</svg>
